name new_emg_signals
nRows=30
nColumns=7
 
endheader
time	LGLTMED	LRF	LADDLONG	LBF	LTA	LGM
3.3899999999999277	0.5985562497930339	0.7787554189554522	0.6909459054131876	0.8134581361615176	0.6443181903192249	0.6148747713266495
3.3999999999999275	0.6010035619600733	0.7822798815458903	0.6943255178566287	0.8112443174611556	0.6479074251651181	0.6172491261943851
3.409999999999929	0.6034094511253963	0.7858693682133289	0.6976958463553389	0.8089467740659215	0.6515534545435808	0.619625876827616
3.419999999999929	0.6057729803669101	0.7895214924572722	0.7010542738345278	0.806568073160804	0.6552525078954359	0.6220017572320984
3.4299999999999287	0.6080933294837505	0.793233689719794	0.7043981839536744	0.804110924033726	0.6590007392740193	0.6243736223594857
3.4399999999999267	0.6103697945316487	0.7970032213478513	0.7077249648943806	0.8015781704853682	0.6627942321149352	0.6267384531683612
3.4499999999999265	0.6126017869525708	0.8008271791968921	0.7110320133088582	0.798972782936926	0.6666290043527826	0.6290933611489496
3.4599999999999262	0.614788832307356	0.8047024908734598	0.7143167384186998	0.7962978502702488	0.6705010138801036	0.631435592300685
3.469999999999926	0.6169305686217711	0.8086259256117219	0.7175765662525068	0.7935565714347534	0.674406164342114	0.6337625305552217
3.479999999999926	0.6190267443587	0.812594100776171	0.7208089440103553	0.790752246854643	0.6783403112592583	0.6360717006404899
3.489999999999924	0.6210772160316946	0.8166034889799506	0.724011344542781	0.7878882696691301	0.6822992684686634	0.6383607703842018
3.4999999999999236	0.6230819454775586	0.8206504258055742	0.7271812709320645	0.7849681168377005	0.6862788148746813	0.6406275524571013
3.5099999999999234	0.6250409968066827	0.824731118112416	0.730316261162981	0.7819953401419835	0.6902747014978606	0.6428700055578794
3.519999999999925	0.6269545330503035	0.8288416529128179	0.7334138928701347	0.7789735571156916	0.6942826588103858	0.6450862350428137
3.5299999999999248	0.6288228125229731	0.8329780067960489	0.7364717881476275	0.7759064419340398	0.6982984043445571	0.6472744930054494
3.5399999999999245	0.6306461849179649	0.837136055876662	0.7394876184063363	0.772797716294034	0.7023176505586826	0.6494331778139382
3.5499999999999243	0.6324250871531276	0.841311586240756	0.7424591092636268	0.7696511403172213	0.706336112942594	0.6515608331154841
3.559999999999924	0.6341600389852718	0.8455003048610589	0.7453840454506565	0.7664705035058117	0.7103495183425603	0.6536561463183098
3.569999999999924	0.6358516384116141	0.8496978509491505	0.7482602757224341	0.763259615781927	0.7143536134831686	0.6557179465619127
3.5799999999999237	0.6375005568767491	0.8538998077110869	0.7510857177555578	0.7600222986384495	0.7183441736614246	0.6577452021880279
3.5899999999999235	0.6391075343030157	0.8581017144702132	0.7538583630173453	0.7567623764280587	0.7223170115863271	0.6597370177272098
3.599999999999925	0.6406733739620301	0.862299079118522	0.756576281588658	0.7534836678153044	0.7262679863349983	0.6616926304200936
3.609999999999925	0.6421989372057247	0.8664873908549062	0.7592376269217044	0.7501899774142755	0.7301930123947176	0.6636114062964429
3.6199999999999246	0.6436851380763898	0.870662133165605	0.7618406405126672	0.746885087632541	0.7340880687583674	0.6654928358383879
3.6299999999999226	0.6451329378162041	0.8748187969988922	0.7643836564681675	0.7435727507394732	0.7379492080389743	0.6673365292557678
3.6399999999999224	0.646543339297132	0.8789528940828981	0.7668651059425634	0.7402566811750076	0.7417725655670254	0.6691422114028995
3.649999999999922	0.6479173813928516	0.883059970332286	0.7692835214219143	0.7369405481124851	0.7455543684324023	0.6709097163680504
3.659999999999922	0.6492561333153456	0.8871356192863925	0.7716375408293628	0.7336279682873013	0.7492909444308277	0.6726389817700968
3.6699999999999218	0.6505606889401141	0.8911754955186321	0.7739259114270939	0.7303224991012479	0.752978730872894	0.6743300428001555
3.67999999999992	0.6518321611449441	0.8951753279541633	0.7761474934921095	0.7270276320107326	0.7566142832119354	0.6759830260482936
